# xmcd CD database file
#
# Track frame offsets:
#	150
#	18554
#	41641
#	64529
#	92076
#	115137
#	146916
#	170191
#	202620
#
# Disc length: 3496 seconds
#
# Revision: 1
# Processed by: cddbd v1.5.1PL0 Copyright (c) Steve Scherf et al.
# Submitted via: CDex 1.51
#
DISCID=7a0da609
DTITLE=Janne Ersson Big Band - Live at the Stockholm Jazz Festival
DYEAR=2002
DGENRE=Jazz
TTITLE0=Away we go
TTITLE1=Willowcrest
TTITLE2=Pipe dreams
TTITLE3=In a mellow tone
TTITLE4=Mexicali nose
TTITLE5=Time check
TTITLE6=Groovin' hard
TTITLE7=Round about midnight
TTITLE8=West Side Story medley
EXTD=YEAR: 2002
EXTT0=
EXTT1=
EXTT2=
EXTT3=
EXTT4=
EXTT5=
EXTT6=
EXTT7=
EXTT8=
PLAYORDER=
